<svg xmlns="http://www.w3.org/2000/svg" fill="none" viewBox="0 0 2500 999">
	<path d="M0 0h2500v999H0z"/>
	<mask id="b" width="2284" height="685" x="108" y="157" maskUnits="userSpaceOnUse" mask-type="luminance">
		<path fill="#fff" d="m124 505 49-52 34-37 23-25 194-208 9-9c10-9 22-17 34-17 5 0 9 1 13 4 6 3 10 8 12 13 6 16-1 37-4 46l-3 11-37 118-24 77h156c18 0 29 6 36 12a33 33 0 0 1 8 32c-1 5-3 10-7 16l-7 8-49 52-30 32-27 30-182 194v1l-12 13-9 9c-10 9-22 17-34 17-5 0-9-1-13-4-6-3-10-8-12-13-6-16 1-37 4-46l11-37 53-169H154c-11 0-20-2-26-5l-10-7-6-10c-4-7-6-21 5-38l7-8zm667-151h33v234c0 11 2 18 4 22 2 5 7 7 15 7a65 65 0 0 0 14-3l7 29a86 86 0 0 1-25 4c-16 0-28-5-36-13-8-9-12-21-12-37V354zm103 291V427h34v218h-34zm17-255c-6 0-12-2-17-6a25 25 0 0 1 0-32 24 24 0 0 1 34 0c5 4 7 9 7 16s-2 11-7 16c-5 4-10 6-17 6zm166 341c-16 0-30-2-41-6a89 89 0 0 1-48-37l27-19 11 14c5 5 11 9 19 13 9 4 19 6 32 6 18 0 32-4 44-13s17-22 17-40v-44h-3l-10 14c-5 6-11 11-20 16a91 91 0 0 1-81-6c-14-8-25-20-33-36s-12-35-12-58 4-42 12-59c8-16 19-29 33-38s30-14 48-14c14 0 26 2 34 7s15 10 19 16l11 14h3v-34h33v224c0 19-5 34-13 46-9 12-20 20-34 26s-30 8-48 8zm-1-120c14 0 25-3 34-9 10-6 17-15 21-26a123 123 0 0 0 1-83c-5-12-12-22-21-29s-21-10-35-10a57 57 0 0 0-56 40c-5 12-7 25-7 40s2 29 7 40c4 12 12 21 21 28 9 6 21 9 35 9zm191-97v131h-34V354h34v107h2c5-11 13-20 23-27 11-7 24-10 42-10 14 0 27 3 39 9 11 6 19 15 26 27 6 12 9 28 9 46v139h-34V509c0-18-4-31-13-41-9-9-21-14-37-14-11 0-21 2-30 7-8 5-15 11-20 20s-7 20-7 33zm297-87v28h-113v-28h113zm-80-52h34v208c0 9 1 16 4 21 3 4 6 8 11 9 4 2 9 2 14 2h9l5-1 7 30a69 69 0 0 1-25 4 57 57 0 0 1-50-25c-6-8-9-19-9-31V375zm164 139v131h-33V427h32v34h3c5-11 13-20 23-27 11-7 24-10 41-10 14 0 27 3 38 9s20 15 26 27 9 28 9 46v139h-33V509c0-17-5-31-14-40-8-10-21-15-36-15-11 0-20 2-29 7-8 5-15 11-20 20-4 9-7 20-7 33zm201 131V427h33v218h-33zm17-255c-7 0-12-2-17-6a22 22 0 0 1 0-32c5-5 10-7 17-7 6 0 12 2 16 7 5 4 8 9 8 16s-3 11-8 16c-4 4-10 6-16 6zm111 124v131h-33V427h32v34h3c5-11 13-20 23-27s24-10 40-10c15 0 28 3 39 9s20 15 26 27 9 28 9 46v139h-33V509c0-17-5-31-14-40-9-10-21-15-36-15a54 54 0 0 0-49 27c-5 9-7 20-7 33zm289 217c-17 0-31-2-42-6a89 89 0 0 1-48-37l27-19 12 14c4 5 11 9 19 13s18 6 32 6c17 0 32-4 43-13s17-22 17-40v-44h-2l-11 14c-4 6-11 11-19 16a91 91 0 0 1-81-6c-14-8-25-20-34-36-8-16-12-35-12-58s4-42 12-59c8-16 19-29 33-38s30-14 48-14a64 64 0 0 1 54 23l10 14h4v-34h32v224c0 19-4 34-13 46-8 12-20 20-34 26s-30 8-47 8zm-2-120c14 0 25-3 35-9 9-6 16-15 21-26s7-26 7-42-2-29-7-41-12-22-21-29-21-10-35-10a57 57 0 0 0-56 40c-5 12-7 25-7 40s2 29 7 40c5 12 12 21 21 28 10 6 21 9 35 9z"/>
	</mask>
	<g filter="url(#a)" mask="url(#b)" style="mix-blend-mode:luminosity">
		<path fill="#696969" d="m-649 140 2549-1266 198 453L-451 593l-198-453z"/>
		<path fill="#708090" d="M-445 593 2104-673l198 452-2549 1267-198-453z"/>
		<path fill="#fff" d="M-247 1046 2302-221l198 453L-49 1498l-198-452z"/>
		<path fill="#708090" d="M-49 1499 2500 232l198 453L149 1951l-198-452z"/>
		<path fill="#696969" d="M149 1951 2698 685l198 452L347 2404l-198-453z"/>
		<path fill="#fff" fill-opacity=".2" d="m-649 141 2549-1267 1195 2716L545 2857-649 141z"/>
	</g>
	<defs>
		<filter id="a" width="5177.8" height="5416.9" x="-1366" y="-1843" color-interpolation-filters="sRGB" filterUnits="userSpaceOnUse">
			<feFlood flood-opacity="0" result="BackgroundImageFix"/>
			<feBlend in="SourceGraphic" in2="BackgroundImageFix" result="shape"/>
			<feGaussianBlur result="effect1_foregroundBlur_520_98" stdDeviation="358.6"/>
		</filter>
	</defs>
</svg>