<svg fill="none" viewBox="0 0 2500 999" xmlns="http://www.w3.org/2000/svg">
<rect width="2500" height="999" fill="#0d1117"/>
<g style="mix-blend-mode:luminosity">
<mask id="a" x="108" y="157" width="2284" height="685" style="mask-type:luminance" maskUnits="userSpaceOnUse">
<path d="m124.28 504.62 48.403-51.841 34.313-36.406 23.311-25.31 194.12-207.91c2.78-2.981 5.786-6.069 8.977-9.034 9.845-9.147 21.451-17.117 33.621-17.117 4.728 0 9.219 1.225 13.337 3.638 5.802 3.37 9.42 8.102 11.526 13.491 6.094 15.592-0.472 36.683-3.427 46.178l-3.381 10.847-36.711 117.78-24.056 77.178 155.74 0.031c18.422 0 29.233 5.8 35.548 12.136 3.455 3.467 5.564 7.094 6.837 10.019 0.584 1.345 1.156 2.92 1.62 4.705 1.157 4.45 1.648 10.202 0 16.931-1.196 4.888-3.521 10.292-7.537 16.087-1.88 2.713-4.131 5.512-6.81 8.384l-48.405 51.841-29.938 31.376-27.657 30.307-181.67 194.56-1e-3 2e-3 -0.016 0.017-12.461 13.346c-2.788 2.988-5.801 6.085-9 9.056-9.835 9.135-21.429 17.087-33.629 17.087-4.712 0-9.195-1.225-13.298-3.623-5.795-3.368-9.412-8.094-11.52-13.475-6.114-15.611 0.471-36.738 3.43-46.229l11.551-37.062 1e-3 -3e-3 52.579-168.69-155.75-0.03c-11.21 0-19.601-2.148-25.877-5.257-4.034-2-7.194-4.396-9.665-6.876-3.459-3.469-5.569-7.1-6.843-10.03-3.098-7.114-5.851-20.735 5.918-37.717 1.88-2.713 4.13-5.511 6.809-8.383z" fill="#fff"/>
<path d="m790.81 354.09h33.522v234.09c0 10.606 1.184 18.04 3.552 22.301 2.367 4.261 7.244 6.297 14.63 6.108 3.978-0.189 6.913-0.474 8.807-0.852 1.989-0.474 3.788-0.947 5.398-1.421l6.818 28.977c-2.936 0.853-6.629 1.61-11.08 2.273-4.45 0.758-9.09 1.137-13.92 1.137-15.909 0-27.841-4.357-35.795-13.069-7.955-8.712-11.932-20.833-11.932-36.363v-243.18zm103.52 290.91v-218.18h33.523v218.18h-33.523zm17.046-254.54c-6.534 0-12.169-2.226-16.904-6.677-4.64-4.45-6.96-9.801-6.96-16.051s2.32-11.6 6.96-16.051c4.735-4.451 10.37-6.676 16.904-6.676s12.121 2.225 16.761 6.676c4.735 4.451 7.102 9.801 7.102 16.051s-2.367 11.601-7.102 16.051c-4.64 4.451-10.227 6.677-16.761 6.677zm165.94 340.91c-16.19 0-30.11-2.084-41.76-6.25-11.65-4.072-21.35-9.47-29.12-16.194-7.669-6.628-13.777-13.731-18.322-21.306l26.702-18.75c3.03 3.977 6.87 8.522 11.51 13.636 4.64 5.208 10.98 9.706 19.03 13.494 8.15 3.883 18.8 5.824 31.96 5.824 17.62 0 32.15-4.261 43.61-12.784s17.19-21.875 17.19-40.057v-44.318h-2.84c-2.47 3.977-5.97 8.902-10.51 14.773-4.46 5.776-10.89 10.937-19.32 15.483-8.34 4.451-19.6 6.676-33.81 6.676-17.61 0-33.43-4.167-47.44-12.5-13.92-8.333-24.955-20.455-33.099-36.364-8.049-15.909-12.074-35.227-12.074-57.954 0-22.349 3.93-41.809 11.79-58.381 7.86-16.667 18.793-29.545 32.813-38.636 14.01-9.186 30.21-13.779 48.58-13.779 14.2 0 25.47 2.368 33.81 7.103 8.42 4.64 14.86 9.943 19.31 15.909 4.55 5.871 8.05 10.7 10.52 14.488h3.4v-34.659h32.39v224.43c0 18.75-4.26 33.996-12.78 45.739-8.43 11.837-19.8 20.502-34.09 25.994-14.21 5.587-30.02 8.381-47.45 8.381zm-1.13-119.89c13.44 0 24.81-3.077 34.09-9.233 9.28-6.155 16.33-15.009 21.16-26.562s7.25-25.379 7.25-41.477c0-15.72-2.37-29.593-7.11-41.62-4.73-12.026-11.74-21.449-21.02-28.267s-20.74-10.227-34.37-10.227c-14.21 0-26.05 3.598-35.52 10.795-9.37 7.197-16.43 16.856-21.16 28.978-4.64 12.121-6.96 25.568-6.96 40.341 0 15.151 2.37 28.551 7.1 40.198 4.83 11.553 11.93 20.644 21.31 27.273 9.47 6.534 21.21 9.801 35.23 9.801zm190.34-97.727v131.25h-33.53v-290.91h33.53v106.82h2.84c5.11-11.269 12.78-20.218 23.01-26.847 10.32-6.723 24.05-10.085 41.19-10.085 14.87 0 27.89 2.983 39.06 8.949 11.18 5.871 19.84 14.915 26 27.131 6.25 12.121 9.37 27.557 9.37 46.307v138.64h-33.52v-136.36c0-17.329-4.5-30.729-13.49-40.198-8.9-9.565-21.26-14.347-37.08-14.347-10.98 0-20.83 2.32-29.54 6.96-8.62 4.64-15.44 11.411-20.46 20.313-4.92 8.901-7.38 19.697-7.38 32.386zm297.69-86.932v28.409h-113.07v-28.409h113.07zm-80.11-52.273h33.52v207.96c0 9.47 1.37 16.572 4.12 21.307 2.84 4.64 6.44 7.765 10.79 9.375 4.45 1.515 9.14 2.273 14.07 2.273 3.69 0 6.72-0.19 9.09-0.569 2.36-0.473 4.26-0.852 5.68-1.136l6.82 30.114c-2.28 0.852-5.45 1.704-9.52 2.556-4.07 0.947-9.23 1.421-15.48 1.421-9.47 0-18.75-2.036-27.84-6.108-9-4.072-16.48-10.275-22.45-18.608-5.87-8.333-8.8-18.845-8.8-31.534v-217.05zm164.06 139.2v131.25h-33.53v-218.18h32.39v34.091h2.84c5.12-11.079 12.88-19.981 23.3-26.704 10.41-6.819 23.86-10.228 40.34-10.228 14.77 0 27.7 3.031 38.78 9.091 11.08 5.966 19.69 15.057 25.85 27.273 6.15 12.121 9.23 27.462 9.23 46.023v138.64h-33.52v-136.36c0-17.14-4.45-30.492-13.35-40.056-8.9-9.66-21.12-14.489-36.65-14.489-10.7 0-20.27 2.32-28.69 6.96-8.34 4.64-14.92 11.411-19.75 20.313-4.83 8.901-7.24 19.697-7.24 32.386zm200.46 131.25v-218.18h33.52v218.18h-33.52zm17.04-254.54c-6.53 0-12.16-2.226-16.9-6.677-4.64-4.45-6.96-9.801-6.96-16.051s2.32-11.6 6.96-16.051c4.74-4.451 10.37-6.676 16.9-6.676 6.54 0 12.13 2.225 16.77 6.676 4.73 4.451 7.1 9.801 7.1 16.051s-2.37 11.601-7.1 16.051c-4.64 4.451-10.23 6.677-16.77 6.677zm111.4 123.3v131.25h-33.52v-218.18h32.39v34.091h2.84c5.11-11.079 12.88-19.981 23.29-26.704 10.42-6.819 23.87-10.228 40.34-10.228 14.78 0 27.7 3.031 38.78 9.091 11.08 5.966 19.7 15.057 25.86 27.273 6.15 12.121 9.23 27.462 9.23 46.023v138.64h-33.52v-136.36c0-17.14-4.46-30.492-13.36-40.056-8.9-9.66-21.11-14.489-36.64-14.489-10.71 0-20.27 2.32-28.7 6.96-8.33 4.64-14.91 11.411-19.74 20.313-4.83 8.901-7.25 19.697-7.25 32.386zm288.53 217.61c-16.19 0-30.11-2.084-41.76-6.25-11.65-4.072-21.35-9.47-29.12-16.194-7.67-6.628-13.78-13.731-18.32-21.306l26.7-18.75c3.03 3.977 6.87 8.522 11.51 13.636 4.64 5.208 10.98 9.706 19.03 13.494 8.15 3.883 18.8 5.824 31.96 5.824 17.62 0 32.15-4.261 43.61-12.784s17.19-21.875 17.19-40.057v-44.318h-2.84c-2.46 3.977-5.97 8.902-10.51 14.773-4.45 5.776-10.89 10.937-19.32 15.483-8.33 4.451-19.6 6.676-33.81 6.676-17.61 0-33.43-4.167-47.44-12.5-13.92-8.333-24.95-20.455-33.1-36.364-8.05-15.909-12.07-35.227-12.07-57.954 0-22.349 3.93-41.809 11.79-58.381 7.86-16.667 18.8-29.545 32.81-38.636 14.02-9.186 30.21-13.779 48.58-13.779 14.2 0 25.47 2.368 33.81 7.103 8.42 4.64 14.86 9.943 19.32 15.909 4.54 5.871 8.04 10.7 10.51 14.488h3.41v-34.659h32.38v224.43c0 18.75-4.26 33.996-12.78 45.739-8.43 11.837-19.79 20.502-34.09 25.994-14.21 5.587-30.02 8.381-47.45 8.381zm-1.13-119.89c13.44 0 24.81-3.077 34.09-9.233 9.28-6.155 16.33-15.009 21.16-26.562s7.25-25.379 7.25-41.477c0-15.72-2.37-29.593-7.1-41.62-4.74-12.026-11.75-21.449-21.03-28.267s-20.74-10.227-34.37-10.227c-14.21 0-26.04 3.598-35.51 10.795-9.38 7.197-16.43 16.856-21.17 28.978-4.64 12.121-6.96 25.568-6.96 40.341 0 15.151 2.37 28.551 7.1 40.198 4.83 11.553 11.93 20.644 21.31 27.273 9.47 6.534 21.21 9.801 35.23 9.801z" fill="#fff"/>
</mask>
<g mask="url(#a)">
<g style="mix-blend-mode:luminosity">
<g filter="url(#b)" style="mix-blend-mode:luminosity">
<path d="m-648.88 140.49 2549.1-1266.5 198.11 452.66-2549.1 1266.5-198.11-452.66z" fill="#f00"/>
<path d="m-445.14 593.16 2549.1-1266.5 198.11 452.67-2549.1 1266.5-198.11-452.66z" fill="#FFA500"/>
<path d="m-247.02 1045.8 2549.1-1266.5 198.11 452.67-2549.1 1266.5-198.11-452.67z" fill="#ff0"/>
<path d="m-48.912 1498.5 2549.1-1266.5 198.11 452.67-2549.1 1266.5-198.11-452.66z" fill="#008000"/>
<path d="m149.2 1951.2 2549.1-1266.5 198.11 452.66-2549.1 1266.5-198.11-452.67z" fill="#00f"/>
<path d="m-648.88 140.5 2549.1-1266.5 1194.3 2716-2549.1 1266.5-1194.3-2716z" fill="#fff" fill-opacity=".2"/>
</g>
</g>
</g>
</g>
<defs>
<filter id="b" x="-1366.1" y="-1843.2" width="5177.8" height="5416.9" color-interpolation-filters="sRGB" filterUnits="userSpaceOnUse">
<feFlood flood-opacity="0" result="BackgroundImageFix"/>
<feBlend in="SourceGraphic" in2="BackgroundImageFix" result="shape"/>
<feGaussianBlur result="effect1_foregroundBlur_520_98" stdDeviation="358.594"/>
</filter>
</defs>
</svg>
